<svg xmlns="http://www.w3.org/2000/svg" xmlns:xlink="http://www.w3.org/1999/xlink" viewBox="0 0 1460.82 556.5"><defs><style>.cls-1{fill:url(#linear-gradient);}.cls-2{fill:url(#linear-gradient-2);}.cls-3{fill:#31363f;}</style><linearGradient id="linear-gradient" x1="870.38" y1="986.32" x2="-398.55" y2="-323.12" gradientUnits="userSpaceOnUse"><stop offset="0" stop-color="#fcee21"/><stop offset="0.2" stop-color="#f9ca22"/><stop offset="0.51" stop-color="#f6477b"/><stop offset="1" stop-color="#f142be"/></linearGradient><linearGradient id="linear-gradient-2" x1="915.46" y1="942.6" x2="-353.44" y2="-366.8" xlink:href="#linear-gradient"/></defs><title>songoda</title><g id="Layer_3_copy" data-name="Layer 3 copy"><path class="cls-1" d="M314.59,342.6a20.64,20.64,0,0,0-20.64,20.64v99.07a20.64,20.64,0,1,0,41.28,0V363.24A20.64,20.64,0,0,0,314.59,342.6Z" transform="translate(-187.73 -246.35)"/><g id="Layer_15" data-name="Layer 15"><path class="cls-2" d="M596.66,677.19a147.41,147.41,0,0,1-22.34-12.83,348.93,348.93,0,0,1-107.87,88.12,20.16,20.16,0,0,1-18.71,0C295.06,672.33,249.62,505.74,236.21,407.06a8.44,8.44,0,0,1,6.6-9.39c50.29-10.77,130.61-36.2,208.1-95.55a10.19,10.19,0,0,1,12.38,0c77.48,59.36,157.8,84.79,208.1,95.55a8.44,8.44,0,0,1,6.6,9.39c-1.33,9.76-3,20.2-5,31.14a106.6,106.6,0,0,1,22.75,9.21A124,124,0,0,1,713.87,460a690.73,690.73,0,0,0,12.55-89,10,10,0,0,0-8.92-10.73c-32.81-3.62-144.39-21.92-245.91-108.64a22.37,22.37,0,0,0-29,0c-101.52,86.73-213.1,105-245.91,108.64a10,10,0,0,0-8.92,10.73c6.7,91,44.47,329.54,255,428.58a33.47,33.47,0,0,0,28.61,0c61.62-29,108.42-69.92,144-115.6A141.1,141.1,0,0,1,596.66,677.19ZM471.45,285.49h0l-.05,0Z" transform="translate(-187.73 -246.35)"/></g></g><g id="Layer_5_copy_2" data-name="Layer 5 copy 2"><path class="cls-3" d="M457.9,389q34.62,0,56.89,18.57Q529,419.34,529,431.66q0,9.37-9.52,15.45a26.23,26.23,0,0,1-14.58,4.34q-12.56,0-18.22-8.68Q476.53,427,457.5,427q-20.45,0-27.13,16.66a46.12,46.12,0,0,0-3.24,17.18,26.51,26.51,0,0,0,7.29,18.74q10.33,11.45,37.05,24.65,32,15.79,46.77,29.16,24.5,22.74,24.5,54.85t-24.09,52.07q-23.89,20-61.55,20-47.38,0-72.69-25.86-13-13.36-13-24.65,0-7.63,6.48-13.54,6.48-6.07,17-6.07,12.35,0,20.85,11.63,14,19.09,39.68,19.09,15.59,0,25.11-6.94,11.94-8.68,11.95-26.38,0-18.92-17.41-33.15-12.56-10.24-36.85-21.7-29.76-14.06-44.95-31.59-15.59-17.87-15.59-44.78,0-34.89,27.74-53.28Q426.32,389,457.9,389Z" transform="translate(-187.73 -246.35)"/><path class="cls-3" d="M642.24,464.12q39.48,0,62.56,27.77,21.66,26.21,21.66,69.95,0,35.06-13.16,59-21.87,39.75-71.47,39.75-43.13,0-65.8-31.07-18.83-25.68-18.83-67.34,0-46.69,24.09-72.9Q604.38,464.12,642.24,464.12ZM641.63,500q-16.4,0-26.52,14.93Q604,531.46,604,561.49q0,27.43,8.71,43.74,9.92,18.4,29.36,18.4,17.81,0,27.74-16,10.33-16.31,10.33-46.34,0-31.24-12.15-47.56Q657.63,500,641.63,500Z" transform="translate(-187.73 -246.35)"/><path class="cls-3" d="M788.11,495q21.66-29.5,57.3-29.51,29,0,45.76,21,14.78,18.4,14.78,47.21V641.5a14.48,14.48,0,0,1-5.06,10.93q-6.68,6.08-18.42,6.07-14.17,0-20.65-8.68a13.38,13.38,0,0,1-2.63-8.33V536.15q0-11.28-3.85-19.44-6.68-14.23-21.06-14.23-14.58,0-27.74,14.75-11.34,12.85-11.34,24.65V641.5a13.67,13.67,0,0,1-3.64,9.55q-6.48,7.46-19.44,7.46-14,0-20.25-8.16a13.8,13.8,0,0,1-3-8.85V482.86a15.63,15.63,0,0,1,3.24-9.89q4.65-6.07,14.38-6.07,15.59,0,18.83,14.93Z" transform="translate(-187.73 -246.35)"/><path class="cls-3" d="M1053,484.25l3.85-6.77q6.88-12.32,18-12.32,9.72,0,15,6.42a13.34,13.34,0,0,1,3,8.51V620.5q0,36.62-17.21,56.58-21.46,24.82-66.21,24.82-36,0-61.15-16.84-12.76-8.51-12.76-17.53a16.89,16.89,0,0,1,5.06-11.8A19.22,19.22,0,0,1,955,649.66q7.08,0,16.2,6.07Q987.83,667,1009.5,667q38.67,0,38.67-42V608q-13,19.62-44.75,19.61-33.61,0-54.67-22-21.26-22-21.26-58.32,0-29,14.17-50.16,22.07-33,63.57-33Q1039.06,464.12,1053,484.25Zm-4.86,68V541.53q0-18.74-11.34-30.55A33.92,33.92,0,0,0,1011.12,500q-17.41,0-28.35,13.88-10.13,12.67-10.12,32.8,0,18.92,7.69,31.07,10.12,16,30.78,16,21.87,0,31.79-18.22Q1048.17,565.65,1048.17,552.29Z" transform="translate(-187.73 -246.35)"/><path class="cls-3" d="M1198.29,464.12q39.48,0,62.56,27.77,21.66,26.21,21.66,69.95,0,35.06-13.16,59-21.87,39.75-71.47,39.75-43.13,0-65.8-31.07-18.83-25.68-18.83-67.34,0-46.69,24.09-72.9Q1160.43,464.12,1198.29,464.12Zm-.61,35.93q-16.4,0-26.52,14.93Q1160,531.46,1160,561.49q0,27.43,8.71,43.74,9.92,18.4,29.36,18.4,17.82,0,27.74-16,10.33-16.31,10.33-46.34,0-31.24-12.15-47.56Q1213.68,500,1197.68,500Z" transform="translate(-187.73 -246.35)"/><path class="cls-3" d="M1414.41,488.24V407.19a13.12,13.12,0,0,1,5.87-11.28q6.88-5,17.61-5,14.17,0,20.25,7.64a13.57,13.57,0,0,1,3,8.68v235q0,16-18.22,16-15.59,0-19-12.84l-3.24-12.5q-15.59,26.39-51.63,26.38-27.74,0-47.38-22.39-24.3-27.42-24.3-75.15,0-35.41,14-60.05,20.45-36.1,58.11-36.1Q1401.45,465.51,1414.41,488.24Zm2.43,79V551.42q0-26-15.19-40.79-9.52-9.2-20.85-9.2-13.16,0-22.47,12.15-13.16,17.18-13.16,48.25,0,25.51,7.9,41.83,9.51,19.61,26.93,19.61,17,0,27.33-16.31Q1416.84,591.69,1416.84,567.21Z" transform="translate(-187.73 -246.35)"/><path class="cls-3" d="M1605,486.85l1.62-7.12q3.24-13.88,21.06-13.89,13.56,0,18.83,8.85a15.26,15.26,0,0,1,2,7.81v159q0,7.81-5.47,12.32-5.47,4.34-13.77,4.34-16,0-18.42-13.54l-2.23-11.11q-15,25.69-52.64,25.69-30.78,0-51-25.17-21.87-27.25-21.87-71.51,0-41,21.06-68.21,22.27-28.81,54.87-28.81Q1591.26,465.51,1605,486.85Zm-1.21,81.05V552.64q0-25.52-13.36-40.09-9.92-10.76-23.08-10.76-13,0-22.47,12-14,17.18-14,49.12,0,27.42,9.52,43.91t26.32,16.49q19.23,0,29.56-19.44Q1603.81,589.43,1603.81,567.91Z" transform="translate(-187.73 -246.35)"/></g></svg>